<?xml version="1.0" encoding="utf-8"?>
<!-- Generator: Adobe Illustrator 27.3.1, SVG Export Plug-In . SVG Version: 6.00 Build 0)  -->
<svg version="1.1" id="Layer_1" xmlns="http://www.w3.org/2000/svg" xmlns:xlink="http://www.w3.org/1999/xlink" x="0px" y="0px"
	 viewBox="0 0 150 85.5" style="enable-background:new 0 0 150 85.5;" xml:space="preserve">
<style type="text/css">
	.st0{clip-path:url(#SVGID_00000147213239763393464370000010062162457040487862_);}
	.st1{fill:#F39610;}
	.st2{fill:#F2F2F2;}
</style>
<g>
	<g>
		<g>
			<g>
				<defs>
					<rect id="SVGID_1_" x="1.5" y="1.6" width="147" height="82.3"/>
				</defs>
				<clipPath id="SVGID_00000005983717175133565460000004812387173351311023_">
					<use xlink:href="#SVGID_1_"  style="overflow:visible;"/>
				</clipPath>
				<g style="clip-path:url(#SVGID_00000005983717175133565460000004812387173351311023_);">
					<path class="st1" d="M42.6,74c0,5.4-4.5,9.8-9.8,9.8c-5.4,0-10.1-4.5-10.1-9.8c0-5.4,4.5-9.8,9.8-9.8
						C38.2,64.2,42.6,68.7,42.6,74 M134.2,74c0,5.4-4.5,9.8-9.8,9.8c-5.4,0-9.8-4.5-9.8-9.8c0-5.4,4.5-9.8,9.8-9.8
						C129.7,64.2,134.2,68.7,134.2,74 M148.5,45.4v22.4c0,1.2-0.9,1.8-1.8,1.8h-9.8c-2.1-4.8-6.9-7.7-12.2-7.7
						c-5.4,0-10.1,3.3-12.2,7.7h-6.6c-1.2,0-1.8-0.9-1.8-1.8v-45c0-1.2,0.9-1.8,1.8-1.8h25.1c1.2,0,2.7,0.3,3.9,1.8L148.5,45.4z
						 M139.6,40.6l-8.6-14.3c-0.6-1.2-1.5-1.8-4.5-1.8h-15.5c-1.2,0-1.8,0.9-1.8,1.8v14.3c0,1.2,0.9,1.8,1.8,1.8h26.8
						C138.7,42.4,139.6,41.5,139.6,40.6 M147,62.1c0-0.9-0.9-1.8-1.8-1.8s-1.8,0.9-1.8,1.8v3.3c0,0.9,0.9,1.8,1.8,1.8
						c0.9,0,1.8-0.9,1.8-1.8V62.1z M97.2,55.6H3.3c-0.9,0-1.8-0.9-1.8-1.8V3.4c0-0.9,0.9-1.8,1.8-1.8h93.9c0.9,0,1.8,0.9,1.8,1.8
						v50.4C99,54.7,98.1,55.6,97.2,55.6 M45.3,70.8c-1.8-5.1-6.9-8.9-12.5-8.9c-5.7,0-10.7,3.9-12.5,8.9h-17c-0.9,0-1.8-0.9-1.8-1.8
						v-8.3c0-0.9,0.9-1.8,1.8-1.8h93.9c0.9,0,1.8,0.9,1.8,1.8V69c0,0.9-0.9,1.8-1.8,1.8H45.3z"/>
				</g>
			</g>
		</g>
	</g>
	<g>
		<g>
			<path class="st2" d="M53.3,36.1c-0.4,0-0.9-0.2-1.2-0.5l-5.3-5.3v-5.5c0-0.9,0.8-1.7,1.7-1.7s1.7,0.8,1.7,1.7v4.1l4.3,4.3
				c0.7,0.7,0.7,1.7,0,2.4C54.1,35.9,53.7,36.1,53.3,36.1z"/>
		</g>
	</g>
	<g>
		<path class="st2" d="M61.7,21.2c-2.7-4.1-7.2-6.6-12.2-6.6c-8,0-14.5,6.5-14.5,14.5c0,4,1.6,7.6,4.2,10.3l0,0
			c0.2,0.2,0.4,0.3,0.5,0.5s0.4,0.3,0.6,0.5c0.1,0,0.1,0.1,0.2,0.1l0,0c1,0.8,2.1,1.5,3.3,2v0c0.4,0.2,0.8,0.3,1.2,0.4
			c0.1,0,0.2,0.1,0.2,0.1c0.4,0.1,0.8,0.2,1.2,0.3c0,0,0,0,0.1,0c0.3,0.1,0.7,0.1,1,0.2v0c0.6,0.1,1.3,0.1,1.9,0.1v-3
			c-0.6,0-1.2-0.1-1.8-0.2c-0.3-0.1-0.7-0.1-1-0.2c-0.1,0-0.3-0.1-0.4-0.1c-0.4-0.1-0.8-0.2-1.2-0.4c-1.1-0.4-2-1-2.9-1.7
			c-0.2-0.1-0.3-0.2-0.4-0.4c-2.3-2.1-3.8-5.1-3.8-8.5c0-6.3,5.2-11.5,11.5-11.5c3.6,0,7,1.7,9.2,4.5L56,22.9l6.5,6.2l2.1-8.7
			L61.7,21.2z"/>
		<path class="st2" d="M51,40.5l0.4,3c1.3-0.2,2.5-0.5,3.7-1L54,39.7C53,40.1,52.1,40.3,51,40.5z"/>
		<path class="st2" d="M56.6,38.1l1.9,2.3c0.4-0.3,0.8-0.7,1.2-1.1l-2.1-2.1C57.3,37.5,57,37.8,56.6,38.1z"/>
	</g>
</g>
</svg>
